{"asset":{"version":"2.0","generator":"babylon.js glTF exporter for 3dsmax 2020 v20201104.9"},"extensionsUsed":["KHR_texture_transform"],"extensionsRequired":["KHR_texture_transform"],"scene":0,"scenes":[{"nodes":[0,1]}],"nodes":[{"mesh":0,"translation":[0.7250468,0.5995,-0.146505892],"name":"Floor _Obecná stropní deska 30 [651244]"},{"mesh":1,"translation":[0.7250468,0.5995,-0.146505892],"name":"Object016"}],"meshes":[{"primitives":[{"attributes":{"POSITION":1,"NORMAL":2,"TEXCOORD_0":3,"TEXCOORD_1":4},"indices":0,"material":0}],"name":"Floor _Obecná stropní deska 30 [651244]"},{"primitives":[{"attributes":{"POSITION":6,"NORMAL":7,"TEXCOORD_0":8,"TEXCOORD_1":9},"indices":5,"material":0}],"name":"Object016"}],"accessors":[{"bufferView":0,"componentType":5123,"count":483,"type":"SCALAR","name":"accessorIndices"},{"bufferView":1,"componentType":5126,"count":483,"max":[0.680378854,0.00149999559,0.4217633],"min":[-0.680378854,-0.00149999559,-0.4217633],"type":"VEC3","name":"accessorPositions"},{"bufferView":1,"byteOffset":5796,"componentType":5126,"count":483,"type":"VEC3","name":"accessorNormals"},{"bufferView":2,"componentType":5126,"count":483,"type":"VEC2","name":"accessorUVs"},{"bufferView":2,"byteOffset":3864,"componentType":5126,"count":483,"type":"VEC2","name":"accessorUV2s"},{"bufferView":0,"byteOffset":968,"componentType":5123,"count":1071,"type":"SCALAR","name":"accessorIndices"},{"bufferView":1,"byteOffset":11592,"componentType":5126,"count":1071,"max":[0.677989841,0.0004999614,0.4822064],"min":[-0.6783818,-0.02650002,-0.4847837],"type":"VEC3","name":"accessorPositions"},{"bufferView":1,"byteOffset":24444,"componentType":5126,"count":1071,"type":"VEC3","name":"accessorNormals"},{"bufferView":2,"byteOffset":7728,"componentType":5126,"count":1071,"type":"VEC2","name":"accessorUVs"},{"bufferView":2,"byteOffset":16296,"componentType":5126,"count":1071,"type":"VEC2","name":"accessorUV2s"}],"bufferViews":[{"buffer":0,"byteLength":3112,"name":"bufferViewScalar"},{"buffer":0,"byteOffset":3112,"byteLength":37296,"byteStride":12,"name":"bufferViewFloatVec3"},{"buffer":0,"byteOffset":40408,"byteLength":24864,"byteStride":8,"name":"bufferViewFloatVec2"}],"buffers":[{"uri":"tramy.bin","byteLength":65272}],"materials":[{"pbrMetallicRoughness":{"baseColorTexture":{"index":0,"extensions":{"KHR_texture_transform":{"offset":[0.0,0.0],"scale":[1.0,1.0],"texCoord":0}}},"metallicFactor":0.0,"roughnessFactor":0.450053632},"name":"Material #2312"}],"textures":[{"sampler":0,"source":0,"name":"tramy.jpg"}],"images":[{"uri":"../church/tramy.jpg"}],"samplers":[{"magFilter":9729,"minFilter":9987}]}