{"asset":{"version":"2.0","generator":"babylon.js glTF exporter for 3dsmax 2020 v20201104.9"},"scene":0,"scenes":[{"nodes":[0,1,2,3]}],"nodes":[{"mesh":0,"translation":[0.05024763,0.0,0.0441463925],"name":"Box001"},{"mesh":1,"translation":[0.698210835,0.0,-0.192342713],"name":"Sphere001"},{"mesh":2,"translation":[0.703867,0.220670968,0.0255930331],"scale":[0.441028923,0.291249156,0.441028923],"name":"Cone001"},{"name":"Default light"}],"meshes":[{"primitives":[{"attributes":{"POSITION":1,"NORMAL":2,"TEXCOORD_0":3},"indices":0,"material":0}],"name":"Box001"},{"primitives":[{"attributes":{"POSITION":5,"NORMAL":6,"TEXCOORD_0":7},"indices":4,"material":1}],"name":"Sphere001"},{"primitives":[{"attributes":{"POSITION":9,"NORMAL":10,"TEXCOORD_0":11},"indices":8,"material":2}],"name":"Cone001"}],"accessors":[{"bufferView":0,"componentType":5123,"count":36,"type":"SCALAR","name":"accessorIndices"},{"bufferView":1,"componentType":5126,"count":36,"max":[0.5017964,0.158351615,0.10641098],"min":[-0.5017964,0.0,-0.10641098],"type":"VEC3","name":"accessorPositions"},{"bufferView":1,"byteOffset":432,"componentType":5126,"count":36,"type":"VEC3","name":"accessorNormals"},{"bufferView":2,"componentType":5126,"count":36,"type":"VEC2","name":"accessorUVs"},{"bufferView":0,"byteOffset":72,"componentType":5123,"count":2880,"type":"SCALAR","name":"accessorIndices"},{"bufferView":1,"byteOffset":864,"componentType":5126,"count":2880,"max":[0.3297148,0.3297148,0.3297148],"min":[-0.3297148,-0.3297148,-0.3297148],"type":"VEC3","name":"accessorPositions"},{"bufferView":1,"byteOffset":35424,"componentType":5126,"count":2880,"type":"VEC3","name":"accessorNormals"},{"bufferView":2,"byteOffset":288,"componentType":5126,"count":2880,"type":"VEC2","name":"accessorUVs"},{"bufferView":0,"byteOffset":5832,"componentType":5123,"count":864,"type":"SCALAR","name":"accessorIndices"},{"bufferView":1,"byteOffset":69984,"componentType":5126,"count":864,"max":[0.406022,0.9010319,0.406022],"min":[-0.406022,0.0,-0.406022],"type":"VEC3","name":"accessorPositions"},{"bufferView":1,"byteOffset":80352,"componentType":5126,"count":864,"type":"VEC3","name":"accessorNormals"},{"bufferView":2,"byteOffset":23328,"componentType":5126,"count":864,"type":"VEC2","name":"accessorUVs"},{"bufferView":3,"componentType":5126,"count":58,"max":[3.33333325],"min":[0.0],"type":"SCALAR","name":"accessorAnimationInput"},{"bufferView":4,"componentType":5126,"count":58,"type":"VEC4","name":"accessorAnimationRotations"}],"bufferViews":[{"buffer":0,"byteLength":7560,"name":"bufferViewScalar"},{"buffer":0,"byteOffset":7560,"byteLength":90720,"byteStride":12,"name":"bufferViewFloatVec3"},{"buffer":0,"byteOffset":98280,"byteLength":30240,"byteStride":8,"name":"bufferViewFloatVec2"},{"buffer":0,"byteOffset":128520,"byteLength":232,"name":"bufferViewAnimationFloatScalar"},{"buffer":0,"byteOffset":128752,"byteLength":928,"name":"bufferViewAnimationFloatVec4"}],"buffers":[{"uri":"primitives.bin","byteLength":129680}],"materials":[{"pbrMetallicRoughness":{"baseColorTexture":{"index":0},"metallicFactor":0.0,"roughnessFactor":0.450053632},"name":"Material #26"},{"pbrMetallicRoughness":{"baseColorTexture":{"index":1},"metallicFactor":0.0,"roughnessFactor":0.450053632},"name":"Material #25"},{"pbrMetallicRoughness":{"baseColorTexture":{"index":2},"metallicFactor":0.0,"roughnessFactor":0.450053632},"name":"Material #27"}],"textures":[{"sampler":0,"source":0,"name":"1_wood shingle roof texture-seamless_hr.jpg"},{"sampler":0,"source":1,"name":"150_alpine green grass texture-seamless.jpg"},{"sampler":0,"source":2,"name":"41_bark texture-seamless.jpg"}],"images":[{"uri":"./1_wood shingle roof texture-seamless_hr.jpg"},{"uri":"./150_alpine green grass texture-seamless.jpg"},{"uri":"./41_bark texture-seamless.jpg"}],"samplers":[{"magFilter":9729,"minFilter":9987}],"animations":[{"channels":[{"sampler":0,"target":{"node":2,"path":"rotation"}}],"samplers":[{"input":12,"output":13}],"name":"All Animations"}]}