{"asset":{"version":"2.0","generator":"babylon.js glTF exporter for 3dsmax 2020 v20201104.9"},"scene":0,"scenes":[{"nodes":[0,1,2,3,4,5]}],"nodes":[{"mesh":0,"translation":[0.05415878,0.0,0.255534917],"name":"Box001"},{"mesh":1,"translation":[0.702122,0.0,0.01904583],"name":"Sphere001"},{"mesh":2,"translation":[0.707778156,0.220670968,0.236981571],"scale":[0.441028923,0.291249156,0.441028923],"name":"Cone001"},{"mesh":3,"translation":[0.000255528081,0.0,0.000136875809],"name":"Tube001"},{"mesh":4,"translation":[0.699818552,0.0,0.009943848],"rotation":[0.0,0.0,0.7097323,0.7044715],"name":"Plane001"},{"name":"Default light"}],"meshes":[{"primitives":[{"attributes":{"POSITION":1,"NORMAL":2,"TEXCOORD_0":3},"indices":0,"material":0}],"name":"Box001"},{"primitives":[{"attributes":{"POSITION":5,"NORMAL":6,"TEXCOORD_0":7},"indices":4,"material":1}],"name":"Sphere001"},{"primitives":[{"attributes":{"POSITION":9,"NORMAL":10,"TEXCOORD_0":11},"indices":8,"material":2}],"name":"Cone001"},{"primitives":[{"attributes":{"POSITION":13,"NORMAL":14,"TEXCOORD_0":15},"indices":12,"material":3}],"name":"Tube001"},{"primitives":[{"attributes":{"POSITION":17,"NORMAL":18,"TEXCOORD_0":19},"indices":16,"material":4}],"name":"Plane001"}],"accessors":[{"bufferView":0,"componentType":5123,"count":72,"type":"SCALAR","name":"accessorIndices"},{"bufferView":1,"componentType":5126,"count":72,"max":[0.5017964,0.158351615,0.10641098],"min":[-0.5017964,0.0,-0.10641098],"type":"VEC3","name":"accessorPositions"},{"bufferView":1,"byteOffset":864,"componentType":5126,"count":72,"type":"VEC3","name":"accessorNormals"},{"bufferView":2,"componentType":5126,"count":72,"type":"VEC2","name":"accessorUVs"},{"bufferView":0,"byteOffset":144,"componentType":5123,"count":2874,"type":"SCALAR","name":"accessorIndices"},{"bufferView":1,"byteOffset":1728,"componentType":5126,"count":2874,"max":[0.3297148,0.3297148,0.3297148],"min":[-0.3297148,-0.3297148,-0.3297148],"type":"VEC3","name":"accessorPositions"},{"bufferView":1,"byteOffset":36216,"componentType":5126,"count":2874,"type":"VEC3","name":"accessorNormals"},{"bufferView":2,"byteOffset":576,"componentType":5126,"count":2874,"type":"VEC2","name":"accessorUVs"},{"bufferView":0,"byteOffset":5892,"componentType":5123,"count":852,"type":"SCALAR","name":"accessorIndices"},{"bufferView":1,"byteOffset":70704,"componentType":5126,"count":852,"max":[0.406022,0.9010319,0.406022],"min":[-0.406022,0.0,-0.406022],"type":"VEC3","name":"accessorPositions"},{"bufferView":1,"byteOffset":80928,"componentType":5126,"count":852,"type":"VEC3","name":"accessorNormals"},{"bufferView":2,"byteOffset":23568,"componentType":5126,"count":852,"type":"VEC2","name":"accessorUVs"},{"bufferView":0,"byteOffset":7596,"componentType":5123,"count":1296,"type":"SCALAR","name":"accessorIndices"},{"bufferView":1,"byteOffset":91152,"componentType":5126,"count":1296,"max":[0.0159108136,0.238720626,0.0161562636],"min":[-0.0159108136,0.0,-0.0161562636],"type":"VEC3","name":"accessorPositions"},{"bufferView":1,"byteOffset":106704,"componentType":5126,"count":1296,"type":"VEC3","name":"accessorNormals"},{"bufferView":2,"byteOffset":30384,"componentType":5126,"count":1296,"type":"VEC2","name":"accessorUVs"},{"bufferView":0,"byteOffset":10188,"componentType":5123,"count":96,"type":"SCALAR","name":"accessorIndices"},{"bufferView":1,"byteOffset":122256,"componentType":5126,"count":96,"max":[0.202297777,0.0,0.11234697],"min":[-0.202297777,0.0,-0.11234697],"type":"VEC3","name":"accessorPositions"},{"bufferView":1,"byteOffset":123408,"componentType":5126,"count":96,"type":"VEC3","name":"accessorNormals"},{"bufferView":2,"byteOffset":40752,"componentType":5126,"count":96,"type":"VEC2","name":"accessorUVs"},{"bufferView":3,"componentType":5126,"count":58,"max":[3.33333325],"min":[0.0],"type":"SCALAR","name":"accessorAnimationInput"},{"bufferView":4,"componentType":5126,"count":58,"type":"VEC4","name":"accessorAnimationRotations"}],"bufferViews":[{"buffer":0,"byteLength":10380,"name":"bufferViewScalar"},{"buffer":0,"byteOffset":10380,"byteLength":124560,"byteStride":12,"name":"bufferViewFloatVec3"},{"buffer":0,"byteOffset":134940,"byteLength":41520,"byteStride":8,"name":"bufferViewFloatVec2"},{"buffer":0,"byteOffset":176460,"byteLength":232,"name":"bufferViewAnimationFloatScalar"},{"buffer":0,"byteOffset":176692,"byteLength":928,"name":"bufferViewAnimationFloatVec4"}],"buffers":[{"uri":"primitives.bin","byteLength":177620}],"materials":[{"pbrMetallicRoughness":{"baseColorTexture":{"index":0},"metallicFactor":0.0,"roughnessFactor":0.450053632},"name":"Material #26"},{"pbrMetallicRoughness":{"baseColorTexture":{"index":1},"metallicFactor":0.0,"roughnessFactor":0.450053632},"name":"Material #25"},{"pbrMetallicRoughness":{"baseColorTexture":{"index":2},"metallicFactor":0.0,"roughnessFactor":0.450053632},"name":"Material #27"},{"pbrMetallicRoughness":{"baseColorTexture":{"index":3},"metallicFactor":0.0,"roughnessFactor":0.450053632},"name":"Material #89"},{"pbrMetallicRoughness":{"baseColorTexture":{"index":4},"metallicFactor":0.0,"roughnessFactor":0.450053632},"name":"Material #90"}],"textures":[{"sampler":0,"source":0,"name":"wood.jpg"},{"sampler":0,"source":1,"name":"trava.jpg"},{"sampler":0,"source":2,"name":"bark.jpg"},{"sampler":0,"source":3,"name":"metal.jpg"},{"sampler":0,"source":4,"name":"photo.jpg"}],"images":[{"uri":"./wood.jpg"},{"uri":"./trava.jpg"},{"uri":"./bark.jpg"},{"uri":"./metal.jpg"},{"uri":"./photo.jpg"}],"samplers":[{"magFilter":9729,"minFilter":9987}],"animations":[{"channels":[{"sampler":0,"target":{"node":2,"path":"rotation"}}],"samplers":[{"input":20,"output":21}],"name":"All Animations"}]}