{"asset":{"version":"2.0","generator":"babylon.js glTF exporter for 3dsmax 2020 v20201104.9"},"scene":0,"scenes":[{"nodes":[0,1,2,3,4,5,6]}],"nodes":[{"mesh":0,"translation":[-1.3439405,0.05565288,-0.897946537],"rotation":[0.7019571,-0.08518409,0.0851841047,0.7019569],"scale":[0.786752,1.0,1.0],"name":"Plane001"},{"mesh":1,"translation":[-1.70388556,-3.125752,-1.78365016],"rotation":[0.436124325,-0.5565928,0.5565929,0.4361243],"scale":[0.332019061,0.422012359,0.509842932],"name":"Plane003"},{"mesh":2,"translation":[0.209286347,-2.03168654,0.6884301],"rotation":[0.436124355,-0.5565928,0.5565929,0.4361243],"scale":[0.99999994,0.99999994,1.0],"name":"Loft001"},{"mesh":3,"translation":[0.249986723,-2.76689959,0.669786453],"rotation":[0.7019571,-0.08518409,0.08518411,0.7019569],"scale":[0.499140173,0.554760754,0.5547608],"name":"Plane005"},{"translation":[1.57924223,12.7711811,0.4749758],"rotation":[-0.170317262,0.02763013,0.00477759726,0.984990239],"name":"VRayLight001"},{"translation":[1.57924223,-2.692877,24.95788],"rotation":[-0.170317262,0.02763013,0.00477759726,0.984990239],"name":"VRayLight002"},{"translation":[1.57924223,-2.692877,-19.53413],"rotation":[-0.170317262,0.02763013,0.00477759726,0.984990239],"name":"VRayLight003"}],"meshes":[{"primitives":[{"attributes":{"POSITION":1,"NORMAL":2,"TEXCOORD_0":3},"indices":0,"material":0}],"name":"Plane001"},{"primitives":[{"attributes":{"POSITION":5,"NORMAL":6,"TEXCOORD_0":7},"indices":4,"material":1}],"name":"Plane003"},{"primitives":[{"attributes":{"POSITION":9,"NORMAL":10,"TEXCOORD_0":11},"indices":8,"material":2}],"name":"Loft001"},{"primitives":[{"attributes":{"POSITION":13,"NORMAL":14,"TEXCOORD_0":15},"indices":12,"material":3}],"name":"Plane005"}],"accessors":[{"bufferView":0,"componentType":5123,"count":3378,"type":"SCALAR","name":"accessorIndices"},{"bufferView":1,"componentType":5126,"count":3378,"max":[5.59157133,1.1439085,5.14009762],"min":[-1.098166,-3.08551121,-1.61681914],"type":"VEC3","name":"accessorPositions"},{"bufferView":1,"byteOffset":40536,"componentType":5126,"count":3378,"type":"VEC3","name":"accessorNormals"},{"bufferView":2,"componentType":5126,"count":3378,"type":"VEC2","name":"accessorUVs"},{"bufferView":0,"byteOffset":6756,"componentType":5123,"count":6744,"type":"SCALAR","name":"accessorIndices"},{"bufferView":1,"byteOffset":81072,"componentType":5126,"count":6744,"max":[3.35779023,2.19093871,3.46126652],"min":[-3.357791,-13.536972,-3.46126461],"type":"VEC3","name":"accessorPositions"},{"bufferView":1,"byteOffset":162000,"componentType":5126,"count":6744,"type":"VEC3","name":"accessorNormals"},{"bufferView":2,"byteOffset":27024,"componentType":5126,"count":6744,"type":"VEC2","name":"accessorUVs"},{"bufferView":0,"byteOffset":20244,"componentType":5123,"count":12306,"type":"SCALAR","name":"accessorIndices"},{"bufferView":1,"byteOffset":242928,"componentType":5126,"count":12306,"max":[0.69509095,3.717391,3.09533262],"min":[-6.545808,-3.59095454,-2.994103],"type":"VEC3","name":"accessorPositions"},{"bufferView":1,"byteOffset":390600,"componentType":5126,"count":12306,"type":"VEC3","name":"accessorNormals"},{"bufferView":2,"byteOffset":80976,"componentType":5126,"count":12306,"type":"VEC2","name":"accessorUVs"},{"bufferView":0,"byteOffset":44856,"componentType":5123,"count":10110,"type":"SCALAR","name":"accessorIndices"},{"bufferView":1,"byteOffset":538272,"componentType":5126,"count":10110,"max":[6.61445,0.272563756,4.22740126],"min":[-7.02109671,-11.4123487,-4.97433662],"type":"VEC3","name":"accessorPositions"},{"bufferView":1,"byteOffset":659592,"componentType":5126,"count":10110,"type":"VEC3","name":"accessorNormals"},{"bufferView":2,"byteOffset":179424,"componentType":5126,"count":10110,"type":"VEC2","name":"accessorUVs"}],"bufferViews":[{"buffer":0,"byteLength":65076,"name":"bufferViewScalar"},{"buffer":0,"byteOffset":65076,"byteLength":780912,"byteStride":12,"name":"bufferViewFloatVec3"},{"buffer":0,"byteOffset":845988,"byteLength":260304,"byteStride":8,"name":"bufferViewFloatVec2"}],"buffers":[{"uri":"backpack_bab.bin","byteLength":1106292}],"materials":[{"pbrMetallicRoughness":{"baseColorTexture":{"index":0},"metallicFactor":0.0,"roughnessFactor":0.450053632},"name":"Material #27"},{"pbrMetallicRoughness":{"baseColorTexture":{"index":1},"metallicFactor":0.0,"roughnessFactor":0.450053632},"name":"Material #28"},{"pbrMetallicRoughness":{"baseColorTexture":{"index":2},"metallicFactor":0.0,"roughnessFactor":0.450053632},"name":"Material #51"},{"pbrMetallicRoughness":{"baseColorTexture":{"index":3},"metallicFactor":0.0,"roughnessFactor":0.450053632},"name":"Material #74"}],"textures":[{"sampler":0,"source":0,"name":"Plane001CompleteMap.png"},{"sampler":0,"source":1,"name":"postrani_kapsy.png"},{"sampler":0,"source":2,"name":"kuze.png"},{"sampler":0,"source":3,"name":"presky.png"}],"images":[{"uri":"./Plane001CompleteMap.png"},{"uri":"./postrani_kapsy.png"},{"uri":"./kuze.png"},{"uri":"./presky.png"}],"samplers":[{"magFilter":9729,"minFilter":9987}]}